# xmcd
#
# Track frame offsets:
# 150
# 1595
# 15189
# 48130
# 70057
# 85469
# 98058
# 112320
# 122403
# 138123
# 159689
# 176500
# 192582
# 213337
# 222786
# 241486
# 256211
# 272480
# 293004
# 316186
#
# Disc length: 4457 seconds
#
#
# Revision: 0
# Processed by: cddbd v1.5.2PL0 Copyright (c) Steve Scherf et al.
# Submitted via: FreeRIP 2.945 
#
DISCID=0a116714
DTITLE=Various Artist - Spin List SE Bonus Disc
DYEAR=1900
DGENRE=Hip-Hop
TTITLE0=banister fight
TTITLE1=Way To Go(9th)
TTITLE2=Backstage Girl(Phonte)
TTITLE3=Doin Alright
TTITLE4=The Citys Favorite(9th)
TTITLE5=Old Man(Rza and ODB)
TTITLE6=My First Song remix
TTITLE7=Cool(phonte)
TTITLE8=WWIII(J Rocc P Monche)
TTITLE9=nasty filthy
TTITLE10=The Bodega(9th)
TTITLE11=What More Can I Say Remix
TTITLE12=Bridge To Bama remix
TTITLE13=Ode To Oren Iishi
TTITLE14=bucktown
TTITLE15=The One
TTITLE16=December Four Remix
TTITLE17=Let Go(Supastition)
TTITLE18=Number Song(DJ Shadow)
TTITLE19=Smoke De Weed(Bounty Killer)
EXTD=
EXTT0=
EXTT1=
EXTT2=
EXTT3=
EXTT4=
EXTT5=
EXTT6=
EXTT7=
EXTT8=
EXTT9=
EXTT10=
EXTT11=
EXTT12=
EXTT13=
EXTT14=
EXTT15=
EXTT16=
EXTT17=
EXTT18=
EXTT19=
PLAYORDER=
